<svg width="254" height="226" viewBox="0 0 254 226" fill="none" xmlns="http://www.w3.org/2000/svg">
<g filter="url(#filter0_f_19_85)">
<path d="M183.843 149.947C192.84 147.137 209.194 139.534 215.044 133.967C221.796 128.135 207.616 121.816 205.931 120.859C204.247 119.903 121.533 79.8447 107.114 73.6607C92.6948 67.4766 47.3536 81.2453 36.4022 87.4645C27.4754 92.534 33.8509 95.9987 35.0567 96.9597C36.2626 97.9208 105.204 135.501 129.964 146.936C148.715 155.595 166.185 155.465 183.843 149.947Z" fill="white" fill-opacity="0.2"/>
</g>
<path fill-rule="evenodd" clip-rule="evenodd" d="M118.303 107.735L127.37 103.423L127.372 103.428C127.43 103.4 127.489 103.371 127.548 103.344C132.949 100.857 140.741 106.301 144.951 115.504C149.161 124.706 148.195 134.183 142.793 136.67C142.719 136.704 142.645 136.736 142.57 136.768L133.826 140.932L128.849 130.29C127.551 128.604 126.373 126.66 125.39 124.511C124.483 122.529 123.817 120.534 123.383 118.599L118.303 107.735Z" fill="black"/>
<ellipse rx="10.7726" ry="18.3009" transform="matrix(-0.907917 0.418051 0.4162 0.909778 126.182 124.295)" fill="black"/>
<g filter="url(#filter1_i_19_85)">
<ellipse rx="8.07981" ry="13.7263" transform="matrix(-0.907917 0.418051 0.4162 0.909778 125.871 124.307)" fill="url(#paint0_linear_19_85)"/>
</g>
<g filter="url(#filter2_di_19_85)">
<path fill-rule="evenodd" clip-rule="evenodd" d="M127.94 115.868C128.472 116.344 128.99 116.885 129.484 117.486L127.98 120.156L127.94 115.868ZM128.1 132.724L129.453 135.023C129.022 135.08 128.576 135.073 128.122 135.005L128.1 132.724ZM125.82 134.192L125.769 128.764L123.622 132.578C124.335 133.24 125.076 133.784 125.82 134.192ZM125.689 120.438L125.63 114.269C124.05 113.479 122.469 113.311 121.126 113.93C120.751 114.103 120.41 114.33 120.104 114.604L123.637 120.61C123.755 120.504 123.886 120.417 124.031 120.35C124.527 120.122 125.106 120.169 125.689 120.438ZM131.562 134.083L128.083 128.169L128.104 128.15L133.289 131.088C132.963 132.345 132.384 133.382 131.562 134.083ZM122.603 125.033L119.292 125.958C118.862 124.833 118.556 123.714 118.368 122.634L122.603 125.033ZM120.248 128.075L124.134 126.991L121.994 130.794C121.36 129.981 120.771 129.069 120.248 128.075ZM128.85 123.29L130.948 119.563C131.316 120.173 131.658 120.82 131.97 121.501C132.095 121.774 132.212 122.048 132.323 122.321L128.85 123.29ZM121.735 121.902L118.149 119.871C118.175 118.715 118.362 117.656 118.703 116.748L121.735 121.902ZM133.6 128.625L128.872 125.946C128.871 125.856 128.868 125.764 128.862 125.671L133.052 124.502C133.436 125.941 133.616 127.34 133.6 128.625Z" fill="#4C4C4C"/>
</g>
<path fill-rule="evenodd" clip-rule="evenodd" d="M118.306 107.543L127.373 103.231L127.374 103.233C127.43 103.205 127.487 103.179 127.543 103.152C132.945 100.665 140.737 106.109 144.947 115.312C149.156 124.514 148.19 133.991 142.789 136.478C142.734 136.503 142.679 136.528 142.624 136.551L133.829 140.739L128.866 130.126C127.56 128.434 126.374 126.48 125.385 124.319C124.473 122.325 123.804 120.319 123.371 118.373L118.306 107.543Z" fill="black"/>
<path d="M116.296 128.799C120.502 137.995 128.292 143.433 133.693 140.946C139.095 138.458 140.064 128.988 135.857 119.792C131.65 110.597 123.624 104.664 118.222 107.151C112.82 109.638 112.089 119.604 116.296 128.799Z" fill="#2D2C2C"/>
<g filter="url(#filter3_i_19_85)">
<ellipse rx="7.57241" ry="13.2374" transform="matrix(-0.903784 0.428179 0.403168 0.915096 125.968 124.306)" fill="url(#paint1_linear_19_85)"/>
</g>
<g filter="url(#filter4_di_19_85)">
<path fill-rule="evenodd" clip-rule="evenodd" d="M130.917 121.645C128.849 117.146 125.252 114.388 122.544 115.133L124.61 119.735C125.843 119.652 127.342 120.86 128.287 122.76L130.917 121.645ZM132.373 128.519C132.266 130.452 131.636 132.035 130.52 132.894L129.166 129.879L132.373 128.519Z" fill="#A9A8A8"/>
</g>
<path fill-rule="evenodd" clip-rule="evenodd" d="M49.5426 73.9575L57.5481 71.805L57.5494 71.8101C57.6002 71.7955 57.6513 71.7817 57.7026 71.7685C62.4597 70.5525 67.9806 76.1351 70.0338 84.2375C72.087 92.34 69.895 99.8942 65.1379 101.11C65.0685 101.128 64.9989 101.144 64.9291 101.159L57.2226 103.236L54.7632 93.8598C53.9574 92.2947 53.2872 90.5369 52.8068 88.6412C52.3637 86.8927 52.1183 85.1697 52.0537 83.5305L49.5426 73.9575Z" fill="black"/>
<ellipse rx="8.89696" ry="15.1117" transform="matrix(-0.96814 0.247475 0.245824 0.970066 53.4745 88.5832)" fill="black"/>
<g filter="url(#filter5_i_19_85)">
<ellipse rx="6.67306" ry="11.3344" transform="matrix(-0.96814 0.247475 0.245824 0.970066 53.2245 88.5467)" fill="url(#paint2_linear_19_85)"/>
</g>
<g filter="url(#filter6_di_19_85)">
<path fill-rule="evenodd" clip-rule="evenodd" d="M56.1511 81.9943C56.5139 82.4608 56.8553 82.979 57.1682 83.5417L55.5461 85.4928L56.1511 81.9943ZM53.7789 95.7101L54.5374 97.7827C54.1784 97.7652 53.817 97.6926 53.4573 97.5695L53.7789 95.7101ZM51.709 96.565L52.4717 92.155L50.1655 94.929C50.6457 95.5718 51.166 96.123 51.709 96.565ZM53.6441 85.3763L54.5131 80.3524C53.3469 79.4774 52.0892 79.1065 50.9071 79.4087C50.5762 79.4932 50.2653 79.6269 49.9757 79.8048L51.953 85.2082C52.0641 85.1406 52.1832 85.0897 52.3098 85.0574C52.7467 84.9457 53.2101 85.0709 53.6441 85.3763ZM56.3904 97.3342L54.4426 92.0116L54.4608 92.0008L58.2384 95.1611C57.7867 96.1329 57.1619 96.8877 56.3904 97.3342ZM50.4541 88.6489L47.6313 88.9061C47.4497 87.9302 47.3668 86.9767 47.3747 86.0727L50.4541 88.6489ZM48.094 90.7688L51.4109 90.4666L49.1079 93.2367C48.7138 92.482 48.3706 91.654 48.094 90.7688ZM55.791 88.1626L58.0488 85.4468C58.2572 85.9973 58.4395 86.5743 58.5914 87.1735C58.6523 87.4141 58.7073 87.6538 58.7563 87.8924L55.791 88.1626ZM50.2182 85.9798L47.6064 83.7948C47.7989 82.8593 48.1076 82.0258 48.5197 81.3383L50.2182 85.9798ZM58.8568 93.2067L55.4114 90.3243C55.4242 90.2507 55.4352 90.1756 55.4444 90.0991L59.0253 89.7728C59.1234 91.0005 59.0614 92.1651 58.8568 93.2067Z" fill="#4C4C4C"/>
</g>
<path fill-rule="evenodd" clip-rule="evenodd" d="M49.5182 74.1693L57.5237 72.0168L57.5242 72.0187C57.5745 72.0042 57.6252 71.9904 57.6761 71.9774C62.4332 70.7614 67.954 76.3439 70.0072 84.4464C72.0604 92.5489 69.8685 100.103 65.1114 101.319C65.0658 101.331 65.0201 101.342 64.9743 101.352L57.1982 103.448L54.7394 94.0739C53.9324 92.5075 53.2612 90.7479 52.7803 88.8501C52.3366 87.0995 52.0912 85.3744 52.027 83.7334L49.5182 74.1693Z" fill="black"/>
<ellipse rx="8.99581" ry="15.2796" transform="matrix(-0.96814 0.247475 0.245824 0.970066 53.448 88.6146)" fill="#2C2C2C"/>
<g filter="url(#filter7_i_19_85)">
<g filter="url(#filter8_i_19_85)">
<ellipse rx="6.2603" ry="10.9439" transform="matrix(-0.95298 0.30056 0.313388 0.950379 52.9262 89.6352)" fill="url(#paint3_linear_19_85)"/>
</g>
<g filter="url(#filter9_di_19_85)">
<path fill-rule="evenodd" clip-rule="evenodd" d="M57.1611 88.2104C55.978 84.2825 53.3254 81.5379 50.999 81.7496L52.1677 85.7575C53.1987 85.8627 54.3012 87.0549 54.8614 88.7282L57.1611 88.2104ZM57.5178 94.1557C57.1841 95.607 56.4938 96.717 55.512 97.226L54.7954 94.7687L57.5178 94.1557Z" fill="#A9A8A8"/>
</g>
</g>
<g filter="url(#filter10_ii_19_85)">
<path fill-rule="evenodd" clip-rule="evenodd" d="M168.801 67.8728C169.215 68.2219 169.65 68.5574 170.154 68.7584C170.27 68.8047 170.381 68.8417 170.486 68.8688C173.876 69.7419 202.35 85.0092 208.585 91.1941C214.653 97.2129 214.354 100.848 214.215 102.535C214.195 102.779 214.179 102.982 214.185 103.146C214.216 103.963 214.226 105.607 214.238 107.699C214.245 108.931 214.253 110.318 214.267 111.783L214.315 116.76C214.307 117.132 214.312 117.512 214.317 117.899C214.34 119.544 214.365 121.332 213.375 123.301C212.156 125.729 206.239 134.643 177.206 144.07C167.362 147.267 155.858 143.929 148.515 140.967C146.654 140.294 145.066 139.632 143.849 139.091C143.775 139.058 143.701 139.023 143.629 138.985C142.986 138.654 142.406 138.204 141.761 137.878C141.515 137.753 141.35 137.509 141.323 137.234C141.081 134.778 140.474 131.439 139.617 128.102C138.598 124.343 137.265 120.622 135.818 118.2C132.419 112.513 125.233 105.527 119.654 107.513C113.323 109.767 113.898 118.898 114.041 121.078C114.083 121.72 114.161 122.147 114.238 122.569C114.258 122.676 114.268 122.78 114.269 122.882C114.271 123.128 114.289 123.376 114.344 123.616C114.353 123.655 114.361 123.697 114.369 123.742C114.51 124.529 113.615 125.04 112.901 124.679C112.723 124.59 112.524 124.557 112.325 124.541C112.074 124.521 111.817 124.453 111.569 124.329L65.3169 101.219C64.7197 100.921 64.2011 100.499 63.8136 99.9896C63.7467 99.9016 63.663 99.8273 63.5644 99.7775C63.3815 99.6852 63.2485 99.5139 63.2243 99.3105C63.2089 99.1811 63.199 99.0512 63.1942 98.9204C63.1896 98.7936 63.1725 98.6676 63.1467 98.5434C63.1078 98.3554 63.0841 98.1621 63.0771 97.9644C63.0556 97.3527 63.0511 96.7025 63.0463 96.0176L63.0462 96.0163C63.0191 92.1478 62.9842 87.1756 59.846 81.8033C56.9775 76.8927 52.8359 73.6636 49.1156 74.8704C45.3953 76.0771 44.4187 80.106 44.2366 82.3464C44.0578 84.5466 44.1958 86.5629 44.2758 87.7322L44.2759 87.7336C44.3081 88.2035 44.3308 88.5364 44.3198 88.6893C44.2815 89.2225 38.8646 84.6503 38.5024 82.892C37.4001 77.5404 37.1332 72.5218 37.6329 67.0744C37.6958 66.3894 37.8914 64.9003 38.0884 63.8453C38.2131 63.1779 38.2839 62.493 38.2787 61.8141C38.2652 60.0363 38.5473 57.8571 38.9781 56.8511C39.0228 56.7467 39.0663 56.6368 39.112 56.5213C39.6455 55.1737 40.4786 53.069 47.0255 50.0658C56.3217 45.8013 81.6549 36.2637 82.6365 36.037C84.9556 35.5015 87.9345 35.6937 90.346 35.8492C91.761 35.9405 92.9807 36.0192 93.7572 35.9309C104.972 34.6554 118 36.0811 135.253 44.5785C137.562 45.5323 139.846 46.6241 142.06 47.8742C147.59 50.997 152.255 54.3242 156.138 57.3895C160.663 60.7797 164.156 63.8331 166.665 66.0253L166.665 66.0253C167.48 66.7383 168.192 67.3601 168.801 67.8728Z" fill="url(#paint4_linear_19_85)"/>
</g>
<g filter="url(#filter11_ddi_19_85)">
<path d="M124.533 88.1955C118.688 85.8409 115.172 78.3326 106.966 69.3441C105.867 68.1396 106.263 66.182 107.771 65.5597L143.389 50.8578C143.73 50.7167 144.1 50.667 144.451 50.7848C145.842 51.2527 150.138 53.244 159.866 61.6356C165.465 66.465 166.589 67.7261 169.475 69.6321C169.932 69.9335 169.859 70.6076 168.206 71.9972C162.935 76.4271 133.802 91.9294 124.533 88.1955Z" fill="url(#paint5_linear_19_85)"/>
</g>
<g filter="url(#filter12_di_19_85)">
<path d="M80.1839 55.7289C71.9521 53.224 69.8399 53.2295 64.1711 52.9641C60.2704 52.7815 54.0859 53.4171 53.4273 55.1789C52.7688 56.9407 60.3154 62.3824 63.4337 64.0694C64.9578 64.8939 117.509 90.6072 115.817 87.5251C113.731 83.728 104.196 72.9152 100.933 68.4939C95.4924 61.1225 88.4157 58.2338 80.1839 55.7289Z" fill="url(#paint6_linear_19_85)"/>
</g>
<g filter="url(#filter13_di_19_85)">
<path d="M61.5327 50.7383L95.831 36.3852C95.831 36.3852 95.0618 36.6646 90.8362 36.6427C89.3616 36.6351 53.7665 51.6666 53.5076 51.8986L61.5327 50.7383Z" fill="url(#paint7_linear_19_85)"/>
</g>
<g filter="url(#filter14_f_19_85)">
<path d="M140.533 106.955C127.251 100.934 119.748 93.2883 111.714 86.3107C135.504 93.119 185.305 108.039 184.537 109.048C183.576 110.31 180.024 111.829 168.182 112.742C156.523 113.639 142.054 107.645 140.533 106.955Z" fill="url(#paint8_linear_19_85)" fill-opacity="0.21"/>
</g>
<g filter="url(#filter15_di_19_85)">
<path d="M93.3095 89.185C93.3066 88.8793 93.1295 88.6019 92.8536 88.471L88.9784 86.6316C88.4454 86.3786 87.8327 86.7707 87.8384 87.3613C87.8413 87.6687 88.0197 87.9476 88.2974 88.0789L92.1755 89.9121C92.7061 90.1629 93.3151 89.7724 93.3095 89.185Z" fill="#323232"/>
</g>
<g filter="url(#filter16_di_19_85)">
<path d="M67.9037 78.2581C67.9008 77.9524 67.7237 77.675 67.4478 77.544L63.5726 75.7046C63.0396 75.4517 62.4269 75.8438 62.4326 76.4344C62.4355 76.7418 62.6139 77.0207 62.8916 77.152L66.7697 78.9852C67.3003 79.236 67.9093 78.8455 67.9037 78.2581Z" fill="#323232"/>
</g>
<g filter="url(#filter17_f_19_85)">
<path d="M103.373 117.723L67.5491 100.606C66.3977 100.056 65.5261 99.0528 65.1548 97.8319C63.9409 93.8406 62.2555 88.008 62.2039 86.6447C62.128 84.639 113.423 108.446 111.679 113.002C110.504 116.071 106.338 119.14 103.373 117.723Z" fill="url(#paint9_linear_19_85)" fill-opacity="0.12"/>
</g>
<path d="M150.231 82.1672L119.882 60.4958C116.439 61.4634 108.618 65.0552 107.126 65.6318C105.194 66.3789 104.875 66.7879 104.875 66.7879C104.881 67.3735 105.182 67.6268 106.132 68.5328C107.495 69.8318 108.072 70.4301 111.456 74.6677C116.33 80.7703 120.048 86.4561 123.574 87.7954C126.379 88.8608 130.747 89.7743 136.931 87.668C142.458 85.7852 145.851 83.6849 150.231 82.1672Z" fill="#C4C4C4" fill-opacity="0.2"/>
<g opacity="0.17" filter="url(#filter18_f_19_85)">
<path d="M203.842 99.0554C195.692 105.632 177.512 115.096 169.369 116.59" stroke="url(#paint10_linear_19_85)" stroke-width="75.7446" stroke-linecap="round" stroke-linejoin="round"/>
</g>
<g filter="url(#filter19_ddii_19_85)">
<path d="M210.135 101.366C211.614 99.3276 211.286 97.6896 211.027 95.2447C210.989 94.89 210.866 94.5441 210.832 94.189C210.741 93.2419 213.298 97.1284 213.61 99.9069C213.723 100.915 213.663 101.426 213.577 102.359C213.538 102.785 212.686 105.395 212.822 105.955C212.957 106.515 212.708 110.389 212.734 110.973C212.759 111.558 210.358 115.934 203.982 120.193C198.686 123.731 191.055 126.093 190.271 126.213C189.488 126.334 188.694 123.709 188.123 123.569C186.629 123.202 182.242 124.862 180.602 125.291C178.689 125.791 174.225 126.946 169.328 126.364C163.272 125.645 162.34 124.966 156.75 121.99C155.241 121.187 153.907 120.069 152.789 118.879C150.576 116.525 152.709 114.121 155.806 115.041C159.954 116.273 165.396 117.646 171.268 118.191C184.631 119.433 195.115 112.987 196.616 112.061C202.93 108.166 206.252 106.717 210.135 101.366Z" fill="#272727"/>
</g>
<mask id="mask0_19_85" style="mask-type:alpha" maskUnits="userSpaceOnUse" x="151" y="98" width="64" height="29">
<path d="M210.134 101.339C210.241 101.192 210.339 101.042 210.429 100.891C211.504 99.0787 213.92 97.9131 214.259 99.9925C214.373 101.001 214.355 101.642 214.27 102.574C214.231 103 212.688 105.366 212.824 105.927C212.96 106.487 212.713 110.36 212.739 110.945C212.765 111.53 210.367 115.907 203.994 120.17C198.699 123.712 191.07 126.078 190.287 126.199C189.503 126.32 188.708 123.696 188.137 123.556C186.642 123.191 182.256 124.853 180.617 125.283C178.704 125.785 174.241 126.942 169.344 126.364C163.287 125.648 162.354 124.97 156.762 121.998C155.253 121.196 153.918 120.078 152.799 118.889C150.585 116.536 152.717 114.131 155.814 115.049C159.963 116.279 165.406 117.648 171.278 118.19C184.642 119.423 195.121 112.97 196.622 112.043C202.933 108.144 206.254 106.692 210.134 101.339Z" fill="#999999"/>
</mask>
<g mask="url(#mask0_19_85)">
<g filter="url(#filter20_d_19_85)">
<path d="M161.674 116.406L175.922 116.484C175.945 116.759 175.935 117.051 175.867 117.336C175.769 117.747 175.538 118.21 174.963 118.649C174.36 119.111 173.296 119.604 171.443 119.871C170.399 120.021 168.898 120.034 167.344 119.754C165.784 119.474 164.294 118.921 163.167 118.04C162.758 117.72 162.222 117.112 161.674 116.406Z" stroke="white" stroke-opacity="0.9" stroke-width="3.41524"/>
</g>
<g filter="url(#filter21_d_19_85)">
<path d="M209.856 100.044L210.499 99.0489C210.467 99.4175 210.378 99.8026 210.211 100.197C210.092 100.136 209.973 100.085 209.856 100.044ZM210.068 100.452C210.068 100.452 210.068 100.451 210.069 100.451L210.068 100.452Z" stroke="white" stroke-opacity="0.9" stroke-width="3.41524"/>
</g>
</g>
<defs>
<filter id="filter0_f_19_85" x="21.7248" y="62.0997" width="205.13" height="101.714" filterUnits="userSpaceOnUse" color-interpolation-filters="sRGB">
<feFlood flood-opacity="0" result="BackgroundImageFix"/>
<feBlend mode="normal" in="SourceGraphic" in2="BackgroundImageFix" result="shape"/>
<feGaussianBlur stdDeviation="5" result="effect1_foregroundBlur_19_85"/>
</filter>
<filter id="filter1_i_19_85" x="116.573" y="111.368" width="18.5966" height="25.8798" filterUnits="userSpaceOnUse" color-interpolation-filters="sRGB">
<feFlood flood-opacity="0" result="BackgroundImageFix"/>
<feBlend mode="normal" in="SourceGraphic" in2="BackgroundImageFix" result="shape"/>
<feColorMatrix in="SourceAlpha" type="matrix" values="0 0 0 0 0 0 0 0 0 0 0 0 0 0 0 0 0 0 127 0" result="hardAlpha"/>
<feMorphology radius="1.14765" operator="erode" in="SourceAlpha" result="effect1_innerShadow_19_85"/>
<feOffset/>
<feGaussianBlur stdDeviation="0.573823"/>
<feComposite in2="hardAlpha" operator="arithmetic" k2="-1" k3="1"/>
<feColorMatrix type="matrix" values="0 0 0 0 0 0 0 0 0 0 0 0 0 0 0 0 0 0 0.25 0"/>
<feBlend mode="normal" in2="shape" result="effect1_innerShadow_19_85"/>
</filter>
<filter id="filter2_di_19_85" x="114.706" y="113.325" width="19.5828" height="24.0318" filterUnits="userSpaceOnUse" color-interpolation-filters="sRGB">
<feFlood flood-opacity="0" result="BackgroundImageFix"/>
<feColorMatrix in="SourceAlpha" type="matrix" values="0 0 0 0 0 0 0 0 0 0 0 0 0 0 0 0 0 0 127 0" result="hardAlpha"/>
<feOffset dy="0.459058"/>
<feGaussianBlur stdDeviation="0.344294"/>
<feColorMatrix type="matrix" values="0 0 0 0 1 0 0 0 0 1 0 0 0 0 1 0 0 0 0.41 0"/>
<feBlend mode="normal" in2="BackgroundImageFix" result="effect1_dropShadow_19_85"/>
<feBlend mode="normal" in="SourceGraphic" in2="effect1_dropShadow_19_85" result="shape"/>
<feColorMatrix in="SourceAlpha" type="matrix" values="0 0 0 0 0 0 0 0 0 0 0 0 0 0 0 0 0 0 127 0" result="hardAlpha"/>
<feOffset dx="-3.44294" dy="2.29529"/>
<feGaussianBlur stdDeviation="1.72147"/>
<feComposite in2="hardAlpha" operator="arithmetic" k2="-1" k3="1"/>
<feColorMatrix type="matrix" values="0 0 0 0 0 0 0 0 0 0 0 0 0 0 0 0 0 0 0.25 0"/>
<feBlend mode="normal" in2="shape" result="effect2_innerShadow_19_85"/>
</filter>
<filter id="filter3_i_19_85" x="117.289" y="111.763" width="17.3583" height="25.0862" filterUnits="userSpaceOnUse" color-interpolation-filters="sRGB">
<feFlood flood-opacity="0" result="BackgroundImageFix"/>
<feBlend mode="normal" in="SourceGraphic" in2="BackgroundImageFix" result="shape"/>
<feColorMatrix in="SourceAlpha" type="matrix" values="0 0 0 0 0 0 0 0 0 0 0 0 0 0 0 0 0 0 127 0" result="hardAlpha"/>
<feMorphology radius="2.84604" operator="erode" in="SourceAlpha" result="effect1_innerShadow_19_85"/>
<feOffset/>
<feGaussianBlur stdDeviation="1.42302"/>
<feComposite in2="hardAlpha" operator="arithmetic" k2="-1" k3="1"/>
<feColorMatrix type="matrix" values="0 0 0 0 0 0 0 0 0 0 0 0 0 0 0 0 0 0 0.25 0"/>
<feBlend mode="normal" in2="shape" result="effect1_innerShadow_19_85"/>
</filter>
<filter id="filter4_di_19_85" x="118.904" y="114.769" width="14.6822" height="20.5511" filterUnits="userSpaceOnUse" color-interpolation-filters="sRGB">
<feFlood flood-opacity="0" result="BackgroundImageFix"/>
<feColorMatrix in="SourceAlpha" type="matrix" values="0 0 0 0 0 0 0 0 0 0 0 0 0 0 0 0 0 0 127 0" result="hardAlpha"/>
<feOffset dy="0.970617"/>
<feGaussianBlur stdDeviation="0.606636"/>
<feColorMatrix type="matrix" values="0 0 0 0 1 0 0 0 0 1 0 0 0 0 1 0 0 0 0.59 0"/>
<feBlend mode="normal" in2="BackgroundImageFix" result="effect1_dropShadow_19_85"/>
<feBlend mode="normal" in="SourceGraphic" in2="effect1_dropShadow_19_85" result="shape"/>
<feColorMatrix in="SourceAlpha" type="matrix" values="0 0 0 0 0 0 0 0 0 0 0 0 0 0 0 0 0 0 127 0" result="hardAlpha"/>
<feOffset dx="-3.63981" dy="2.42654"/>
<feGaussianBlur stdDeviation="1.81991"/>
<feComposite in2="hardAlpha" operator="arithmetic" k2="-1" k3="1"/>
<feColorMatrix type="matrix" values="0 0 0 0 0 0 0 0 0 0 0 0 0 0 0 0 0 0 0.25 0"/>
<feBlend mode="normal" in2="shape" result="effect2_innerShadow_19_85"/>
</filter>
<filter id="filter5_i_19_85" x="46.187" y="77.4267" width="14.075" height="22.2399" filterUnits="userSpaceOnUse" color-interpolation-filters="sRGB">
<feFlood flood-opacity="0" result="BackgroundImageFix"/>
<feBlend mode="normal" in="SourceGraphic" in2="BackgroundImageFix" result="shape"/>
<feColorMatrix in="SourceAlpha" type="matrix" values="0 0 0 0 0 0 0 0 0 0 0 0 0 0 0 0 0 0 127 0" result="hardAlpha"/>
<feMorphology radius="0.947741" operator="erode" in="SourceAlpha" result="effect1_innerShadow_19_85"/>
<feOffset/>
<feGaussianBlur stdDeviation="0.47387"/>
<feComposite in2="hardAlpha" operator="arithmetic" k2="-1" k3="1"/>
<feColorMatrix type="matrix" values="0 0 0 0 0 0 0 0 0 0 0 0 0 0 0 0 0 0 0.25 0"/>
<feBlend mode="normal" in2="shape" result="effect1_innerShadow_19_85"/>
</filter>
<filter id="filter6_di_19_85" x="44.531" y="79.1154" width="15.1086" height="20.5628" filterUnits="userSpaceOnUse" color-interpolation-filters="sRGB">
<feFlood flood-opacity="0" result="BackgroundImageFix"/>
<feColorMatrix in="SourceAlpha" type="matrix" values="0 0 0 0 0 0 0 0 0 0 0 0 0 0 0 0 0 0 127 0" result="hardAlpha"/>
<feOffset dy="0.379096"/>
<feGaussianBlur stdDeviation="0.284322"/>
<feColorMatrix type="matrix" values="0 0 0 0 1 0 0 0 0 1 0 0 0 0 1 0 0 0 0.41 0"/>
<feBlend mode="normal" in2="BackgroundImageFix" result="effect1_dropShadow_19_85"/>
<feBlend mode="normal" in="SourceGraphic" in2="effect1_dropShadow_19_85" result="shape"/>
<feColorMatrix in="SourceAlpha" type="matrix" values="0 0 0 0 0 0 0 0 0 0 0 0 0 0 0 0 0 0 127 0" result="hardAlpha"/>
<feOffset dx="-2.84322" dy="1.89548"/>
<feGaussianBlur stdDeviation="1.42161"/>
<feComposite in2="hardAlpha" operator="arithmetic" k2="-1" k3="1"/>
<feColorMatrix type="matrix" values="0 0 0 0 0 0 0 0 0 0 0 0 0 0 0 0 0 0 0.25 0"/>
<feBlend mode="normal" in2="shape" result="effect2_innerShadow_19_85"/>
</filter>
<filter id="filter7_i_19_85" x="46.0435" y="79.0637" width="13.7653" height="21.143" filterUnits="userSpaceOnUse" color-interpolation-filters="sRGB">
<feFlood flood-opacity="0" result="BackgroundImageFix"/>
<feBlend mode="normal" in="SourceGraphic" in2="BackgroundImageFix" result="shape"/>
<feColorMatrix in="SourceAlpha" type="matrix" values="0 0 0 0 0 0 0 0 0 0 0 0 0 0 0 0 0 0 127 0" result="hardAlpha"/>
<feMorphology radius="2.84604" operator="erode" in="SourceAlpha" result="effect1_innerShadow_19_85"/>
<feOffset/>
<feGaussianBlur stdDeviation="1.42302"/>
<feComposite in2="hardAlpha" operator="arithmetic" k2="-1" k3="1"/>
<feColorMatrix type="matrix" values="0 0 0 0 0 0 0 0 0 0 0 0 0 0 0 0 0 0 0.25 0"/>
<feBlend mode="normal" in2="shape" result="effect1_innerShadow_19_85"/>
</filter>
<filter id="filter8_i_19_85" x="46.0435" y="79.0637" width="13.7653" height="21.143" filterUnits="userSpaceOnUse" color-interpolation-filters="sRGB">
<feFlood flood-opacity="0" result="BackgroundImageFix"/>
<feBlend mode="normal" in="SourceGraphic" in2="BackgroundImageFix" result="shape"/>
<feColorMatrix in="SourceAlpha" type="matrix" values="0 0 0 0 0 0 0 0 0 0 0 0 0 0 0 0 0 0 127 0" result="hardAlpha"/>
<feMorphology radius="0.852955" operator="erode" in="SourceAlpha" result="effect1_innerShadow_19_85"/>
<feOffset/>
<feGaussianBlur stdDeviation="0.426477"/>
<feComposite in2="hardAlpha" operator="arithmetic" k2="-1" k3="1"/>
<feColorMatrix type="matrix" values="0 0 0 0 0 0 0 0 0 0 0 0 0 0 0 0 0 0 0.25 0"/>
<feBlend mode="normal" in2="shape" result="effect1_innerShadow_19_85"/>
</filter>
<filter id="filter9_di_19_85" x="47.3592" y="81.4955" width="11.3719" height="18.157" filterUnits="userSpaceOnUse" color-interpolation-filters="sRGB">
<feFlood flood-opacity="0" result="BackgroundImageFix"/>
<feColorMatrix in="SourceAlpha" type="matrix" values="0 0 0 0 0 0 0 0 0 0 0 0 0 0 0 0 0 0 127 0" result="hardAlpha"/>
<feOffset dy="0.970618"/>
<feGaussianBlur stdDeviation="0.606636"/>
<feColorMatrix type="matrix" values="0 0 0 0 1 0 0 0 0 1 0 0 0 0 1 0 0 0 0.59 0"/>
<feBlend mode="normal" in2="BackgroundImageFix" result="effect1_dropShadow_19_85"/>
<feBlend mode="normal" in="SourceGraphic" in2="effect1_dropShadow_19_85" result="shape"/>
<feColorMatrix in="SourceAlpha" type="matrix" values="0 0 0 0 0 0 0 0 0 0 0 0 0 0 0 0 0 0 127 0" result="hardAlpha"/>
<feOffset dx="-3.63982" dy="2.42654"/>
<feGaussianBlur stdDeviation="1.81991"/>
<feComposite in2="hardAlpha" operator="arithmetic" k2="-1" k3="1"/>
<feColorMatrix type="matrix" values="0 0 0 0 0 0 0 0 0 0 0 0 0 0 0 0 0 0 0.25 0"/>
<feBlend mode="normal" in2="shape" result="effect2_innerShadow_19_85"/>
</filter>
<filter id="filter10_ii_19_85" x="37.3909" y="12.7563" width="194.01" height="132.615" filterUnits="userSpaceOnUse" color-interpolation-filters="sRGB">
<feFlood flood-opacity="0" result="BackgroundImageFix"/>
<feBlend mode="normal" in="SourceGraphic" in2="BackgroundImageFix" result="shape"/>
<feColorMatrix in="SourceAlpha" type="matrix" values="0 0 0 0 0 0 0 0 0 0 0 0 0 0 0 0 0 0 127 0" result="hardAlpha"/>
<feOffset dx="17.0762" dy="-22.7683"/>
<feGaussianBlur stdDeviation="68.3049"/>
<feComposite in2="hardAlpha" operator="arithmetic" k2="-1" k3="1"/>
<feColorMatrix type="matrix" values="0 0 0 0 0 0 0 0 0 0 0 0 0 0 0 0 0 0 0.07 0"/>
<feBlend mode="normal" in2="shape" result="effect1_innerShadow_19_85"/>
<feColorMatrix in="SourceAlpha" type="matrix" values="0 0 0 0 0 0 0 0 0 0 0 0 0 0 0 0 0 0 127 0" result="hardAlpha"/>
<feOffset dy="-2.84604"/>
<feGaussianBlur stdDeviation="5.69207"/>
<feComposite in2="hardAlpha" operator="arithmetic" k2="-1" k3="1"/>
<feColorMatrix type="matrix" values="0 0 0 0 0 0 0 0 0 0 0 0 0 0 0 0 0 0 0.09 0"/>
<feBlend mode="normal" in2="effect1_innerShadow_19_85" result="effect2_innerShadow_19_85"/>
</filter>
<filter id="filter11_ddi_19_85" x="101.749" y="47.2759" width="70.2633" height="44.9375" filterUnits="userSpaceOnUse" color-interpolation-filters="sRGB">
<feFlood flood-opacity="0" result="BackgroundImageFix"/>
<feColorMatrix in="SourceAlpha" type="matrix" values="0 0 0 0 0 0 0 0 0 0 0 0 0 0 0 0 0 0 127 0" result="hardAlpha"/>
<feOffset dx="-2.29529" dy="1.14765"/>
<feGaussianBlur stdDeviation="1.14765"/>
<feColorMatrix type="matrix" values="0 0 0 0 1 0 0 0 0 1 0 0 0 0 1 0 0 0 0.28 0"/>
<feBlend mode="normal" in2="BackgroundImageFix" result="effect1_dropShadow_19_85"/>
<feColorMatrix in="SourceAlpha" type="matrix" values="0 0 0 0 0 0 0 0 0 0 0 0 0 0 0 0 0 0 127 0" result="hardAlpha"/>
<feOffset dy="-1.14765"/>
<feGaussianBlur stdDeviation="1.14765"/>
<feColorMatrix type="matrix" values="0 0 0 0 1 0 0 0 0 1 0 0 0 0 1 0 0 0 0.56 0"/>
<feBlend mode="normal" in2="effect1_dropShadow_19_85" result="effect2_dropShadow_19_85"/>
<feBlend mode="normal" in="SourceGraphic" in2="effect2_dropShadow_19_85" result="shape"/>
<feColorMatrix in="SourceAlpha" type="matrix" values="0 0 0 0 0 0 0 0 0 0 0 0 0 0 0 0 0 0 127 0" result="hardAlpha"/>
<feOffset dx="-1.14765" dy="3.44294"/>
<feGaussianBlur stdDeviation="1.72147"/>
<feComposite in2="hardAlpha" operator="arithmetic" k2="-1" k3="1"/>
<feColorMatrix type="matrix" values="0 0 0 0 0 0 0 0 0 0 0 0 0 0 0 0 0 0 0.75 0"/>
<feBlend mode="normal" in2="shape" result="effect3_innerShadow_19_85"/>
</filter>
<filter id="filter12_di_19_85" x="48.7963" y="52.934" width="68.2471" height="39.4381" filterUnits="userSpaceOnUse" color-interpolation-filters="sRGB">
<feFlood flood-opacity="0" result="BackgroundImageFix"/>
<feColorMatrix in="SourceAlpha" type="matrix" values="0 0 0 0 0 0 0 0 0 0 0 0 0 0 0 0 0 0 127 0" result="hardAlpha"/>
<feOffset dy="1.18682"/>
<feGaussianBlur stdDeviation="0.593408"/>
<feColorMatrix type="matrix" values="0 0 0 0 0.925374 0 0 0 0 0.925374 0 0 0 0 0.925374 0 0 0 0.37 0"/>
<feBlend mode="normal" in2="BackgroundImageFix" result="effect1_dropShadow_19_85"/>
<feBlend mode="normal" in="SourceGraphic" in2="effect1_dropShadow_19_85" result="shape"/>
<feColorMatrix in="SourceAlpha" type="matrix" values="0 0 0 0 0 0 0 0 0 0 0 0 0 0 0 0 0 0 127 0" result="hardAlpha"/>
<feOffset dx="-4.59058" dy="5.73823"/>
<feGaussianBlur stdDeviation="2.29529"/>
<feComposite in2="hardAlpha" operator="arithmetic" k2="-1" k3="1"/>
<feColorMatrix type="matrix" values="0 0 0 0 0 0 0 0 0 0 0 0 0 0 0 0 0 0 0.8 0"/>
<feBlend mode="normal" in2="shape" result="effect2_innerShadow_19_85"/>
</filter>
<filter id="filter13_di_19_85" x="48.9171" y="36.3852" width="48.1007" height="20.104" filterUnits="userSpaceOnUse" color-interpolation-filters="sRGB">
<feFlood flood-opacity="0" result="BackgroundImageFix"/>
<feColorMatrix in="SourceAlpha" type="matrix" values="0 0 0 0 0 0 0 0 0 0 0 0 0 0 0 0 0 0 127 0" result="hardAlpha"/>
<feOffset dy="1.18682"/>
<feGaussianBlur stdDeviation="0.593408"/>
<feColorMatrix type="matrix" values="0 0 0 0 0.925374 0 0 0 0 0.925374 0 0 0 0 0.925374 0 0 0 0.37 0"/>
<feBlend mode="normal" in2="BackgroundImageFix" result="effect1_dropShadow_19_85"/>
<feBlend mode="normal" in="SourceGraphic" in2="effect1_dropShadow_19_85" result="shape"/>
<feColorMatrix in="SourceAlpha" type="matrix" values="0 0 0 0 0 0 0 0 0 0 0 0 0 0 0 0 0 0 127 0" result="hardAlpha"/>
<feOffset dx="-4.59058" dy="5.73823"/>
<feGaussianBlur stdDeviation="2.29529"/>
<feComposite in2="hardAlpha" operator="arithmetic" k2="-1" k3="1"/>
<feColorMatrix type="matrix" values="0 0 0 0 0 0 0 0 0 0 0 0 0 0 0 0 0 0 0.8 0"/>
<feBlend mode="normal" in2="shape" result="effect2_innerShadow_19_85"/>
</filter>
<filter id="filter14_f_19_85" x="79.5799" y="54.1766" width="137.1" height="90.7904" filterUnits="userSpaceOnUse" color-interpolation-filters="sRGB">
<feFlood flood-opacity="0" result="BackgroundImageFix"/>
<feBlend mode="normal" in="SourceGraphic" in2="BackgroundImageFix" result="shape"/>
<feGaussianBlur stdDeviation="16.067" result="effect1_foregroundBlur_19_85"/>
</filter>
<filter id="filter15_di_19_85" x="87.2691" y="85.415" width="6.60965" height="7.42049" filterUnits="userSpaceOnUse" color-interpolation-filters="sRGB">
<feFlood flood-opacity="0" result="BackgroundImageFix"/>
<feColorMatrix in="SourceAlpha" type="matrix" values="0 0 0 0 0 0 0 0 0 0 0 0 0 0 0 0 0 0 127 0" result="hardAlpha"/>
<feOffset dy="-0.569207"/>
<feGaussianBlur stdDeviation="0.284604"/>
<feColorMatrix type="matrix" values="0 0 0 0 0.78755 0 0 0 0 0.78755 0 0 0 0 0.78755 0 0 0 0.19 0"/>
<feBlend mode="normal" in2="BackgroundImageFix" result="effect1_dropShadow_19_85"/>
<feBlend mode="normal" in="SourceGraphic" in2="effect1_dropShadow_19_85" result="shape"/>
<feColorMatrix in="SourceAlpha" type="matrix" values="0 0 0 0 0 0 0 0 0 0 0 0 0 0 0 0 0 0 127 0" result="hardAlpha"/>
<feOffset dy="2.84604"/>
<feGaussianBlur stdDeviation="1.42302"/>
<feComposite in2="hardAlpha" operator="arithmetic" k2="-1" k3="1"/>
<feColorMatrix type="matrix" values="0 0 0 0 0 0 0 0 0 0 0 0 0 0 0 0 0 0 0.74 0"/>
<feBlend mode="normal" in2="shape" result="effect2_innerShadow_19_85"/>
</filter>
<filter id="filter16_di_19_85" x="61.8633" y="74.4881" width="6.60965" height="7.42049" filterUnits="userSpaceOnUse" color-interpolation-filters="sRGB">
<feFlood flood-opacity="0" result="BackgroundImageFix"/>
<feColorMatrix in="SourceAlpha" type="matrix" values="0 0 0 0 0 0 0 0 0 0 0 0 0 0 0 0 0 0 127 0" result="hardAlpha"/>
<feOffset dy="-0.569207"/>
<feGaussianBlur stdDeviation="0.284604"/>
<feColorMatrix type="matrix" values="0 0 0 0 0.78755 0 0 0 0 0.78755 0 0 0 0 0.78755 0 0 0 0.19 0"/>
<feBlend mode="normal" in2="BackgroundImageFix" result="effect1_dropShadow_19_85"/>
<feBlend mode="normal" in="SourceGraphic" in2="effect1_dropShadow_19_85" result="shape"/>
<feColorMatrix in="SourceAlpha" type="matrix" values="0 0 0 0 0 0 0 0 0 0 0 0 0 0 0 0 0 0 127 0" result="hardAlpha"/>
<feOffset dy="2.84604"/>
<feGaussianBlur stdDeviation="1.42302"/>
<feComposite in2="hardAlpha" operator="arithmetic" k2="-1" k3="1"/>
<feColorMatrix type="matrix" values="0 0 0 0 0 0 0 0 0 0 0 0 0 0 0 0 0 0 0.74 0"/>
<feBlend mode="normal" in2="shape" result="effect2_innerShadow_19_85"/>
</filter>
<filter id="filter17_f_19_85" x="55.3179" y="79.6391" width="63.2908" height="45.3259" filterUnits="userSpaceOnUse" color-interpolation-filters="sRGB">
<feFlood flood-opacity="0" result="BackgroundImageFix"/>
<feBlend mode="normal" in="SourceGraphic" in2="BackgroundImageFix" result="shape"/>
<feGaussianBlur stdDeviation="3.44294" result="effect1_foregroundBlur_19_85"/>
</filter>
<filter id="filter18_f_19_85" x="120.014" y="49.7054" width="133.178" height="116.24" filterUnits="userSpaceOnUse" color-interpolation-filters="sRGB">
<feFlood flood-opacity="0" result="BackgroundImageFix"/>
<feBlend mode="normal" in="SourceGraphic" in2="BackgroundImageFix" result="shape"/>
<feGaussianBlur stdDeviation="5.73823" result="effect1_foregroundBlur_19_85"/>
</filter>
<filter id="filter19_ddii_19_85" x="150.449" y="91.9011" width="64.6512" height="44.4694" filterUnits="userSpaceOnUse" color-interpolation-filters="sRGB">
<feFlood flood-opacity="0" result="BackgroundImageFix"/>
<feColorMatrix in="SourceAlpha" type="matrix" values="0 0 0 0 0 0 0 0 0 0 0 0 0 0 0 0 0 0 127 0" result="hardAlpha"/>
<feOffset dy="1.07131"/>
<feGaussianBlur stdDeviation="0.714204"/>
<feColorMatrix type="matrix" values="0 0 0 0 0 0 0 0 0 0 0 0 0 0 0 0 0 0 0.57 0"/>
<feBlend mode="normal" in2="BackgroundImageFix" result="effect1_dropShadow_19_85"/>
<feColorMatrix in="SourceAlpha" type="matrix" values="0 0 0 0 0 0 0 0 0 0 0 0 0 0 0 0 0 0 127 0" result="hardAlpha"/>
<feOffset dy="-0.714204"/>
<feGaussianBlur stdDeviation="0.714204"/>
<feColorMatrix type="matrix" values="0 0 0 0 0 0 0 0 0 0 0 0 0 0 0 0 0 0 1 0"/>
<feBlend mode="normal" in2="effect1_dropShadow_19_85" result="effect2_dropShadow_19_85"/>
<feBlend mode="normal" in="SourceGraphic" in2="effect2_dropShadow_19_85" result="shape"/>
<feColorMatrix in="SourceAlpha" type="matrix" values="0 0 0 0 0 0 0 0 0 0 0 0 0 0 0 0 0 0 127 0" result="hardAlpha"/>
<feOffset dy="9.84614"/>
<feGaussianBlur stdDeviation="10.0343"/>
<feComposite in2="hardAlpha" operator="arithmetic" k2="-1" k3="1"/>
<feColorMatrix type="matrix" values="0 0 0 0 0 0 0 0 0 0 0 0 0 0 0 0 0 0 1 0"/>
<feBlend mode="normal" in2="shape" result="effect3_innerShadow_19_85"/>
<feColorMatrix in="SourceAlpha" type="matrix" values="0 0 0 0 0 0 0 0 0 0 0 0 0 0 0 0 0 0 127 0" result="hardAlpha"/>
<feOffset dy="-1.07294"/>
<feGaussianBlur stdDeviation="1.07294"/>
<feComposite in2="hardAlpha" operator="arithmetic" k2="-1" k3="1"/>
<feColorMatrix type="matrix" values="0 0 0 0 0 0 0 0 0 0 0 0 0 0 0 0 0 0 1 0"/>
<feBlend mode="normal" in2="effect3_innerShadow_19_85" result="effect4_innerShadow_19_85"/>
</filter>
<filter id="filter20_d_19_85" x="158.119" y="114.68" width="22.074" height="9.8324" filterUnits="userSpaceOnUse" color-interpolation-filters="sRGB">
<feFlood flood-opacity="0" result="BackgroundImageFix"/>
<feColorMatrix in="SourceAlpha" type="matrix" values="0 0 0 0 0 0 0 0 0 0 0 0 0 0 0 0 0 0 127 0" result="hardAlpha"/>
<feOffset dx="1.13841" dy="1.41412"/>
<feGaussianBlur stdDeviation="0.707062"/>
<feColorMatrix type="matrix" values="0 0 0 0 1 0 0 0 0 1 0 0 0 0 1 0 0 0 0.24 0"/>
<feBlend mode="normal" in2="BackgroundImageFix" result="effect1_dropShadow_19_85"/>
<feBlend mode="normal" in="SourceGraphic" in2="effect1_dropShadow_19_85" result="shape"/>
</filter>
<filter id="filter21_d_19_85" x="206.453" y="95.0912" width="8.31981" height="9.81354" filterUnits="userSpaceOnUse" color-interpolation-filters="sRGB">
<feFlood flood-opacity="0" result="BackgroundImageFix"/>
<feColorMatrix in="SourceAlpha" type="matrix" values="0 0 0 0 0 0 0 0 0 0 0 0 0 0 0 0 0 0 127 0" result="hardAlpha"/>
<feOffset dx="1.13841" dy="1.41412"/>
<feGaussianBlur stdDeviation="0.707062"/>
<feColorMatrix type="matrix" values="0 0 0 0 1 0 0 0 0 1 0 0 0 0 1 0 0 0 0.24 0"/>
<feBlend mode="normal" in2="BackgroundImageFix" result="effect1_dropShadow_19_85"/>
<feBlend mode="normal" in="SourceGraphic" in2="effect1_dropShadow_19_85" result="shape"/>
</filter>
<linearGradient id="paint0_linear_19_85" x1="19.0585" y1="20.9392" x2="20.0076" y2="6.82299" gradientUnits="userSpaceOnUse">
<stop stop-color="#3F3F3F"/>
<stop offset="1" stop-color="#5C5C5C"/>
</linearGradient>
<linearGradient id="paint1_linear_19_85" x1="17.8617" y1="20.1934" x2="18.8033" y2="6.58359" gradientUnits="userSpaceOnUse">
<stop stop-color="#AAAAAA"/>
<stop offset="1" stop-color="#C2C2C2"/>
</linearGradient>
<linearGradient id="paint2_linear_19_85" x1="15.7403" y1="17.2904" x2="16.5239" y2="5.63401" gradientUnits="userSpaceOnUse">
<stop stop-color="#3F3F3F"/>
<stop offset="1" stop-color="#5C5C5C"/>
</linearGradient>
<linearGradient id="paint3_linear_19_85" x1="14.7667" y1="16.6947" x2="15.5451" y2="5.44291" gradientUnits="userSpaceOnUse">
<stop stop-color="#AAAAAA"/>
<stop offset="1" stop-color="#C2C2C2"/>
</linearGradient>
<linearGradient id="paint4_linear_19_85" x1="28.2784" y1="108" x2="197.604" y2="166.52" gradientUnits="userSpaceOnUse">
<stop stop-color="#F9C663"/>
<stop offset="1" stop-color="#F5B339"/>
</linearGradient>
<linearGradient id="paint5_linear_19_85" x1="143.973" y1="17.1946" x2="98.278" y2="61.258" gradientUnits="userSpaceOnUse">
<stop stop-color="#E8EAE9"/>
<stop offset="0.498386" stop-color="#707072"/>
<stop offset="1" stop-color="#2F3032"/>
</linearGradient>
<linearGradient id="paint6_linear_19_85" x1="69.6645" y1="164.063" x2="112.951" y2="83.1366" gradientUnits="userSpaceOnUse">
<stop stop-color="#E8EAE9"/>
<stop offset="0.498386" stop-color="#707072"/>
<stop offset="1" stop-color="#2F3032"/>
</linearGradient>
<linearGradient id="paint7_linear_19_85" x1="50.0818" y1="81.0383" x2="74.3033" y2="44.8581" gradientUnits="userSpaceOnUse">
<stop stop-color="#E8EAE9"/>
<stop offset="0.498386" stop-color="#707072"/>
<stop offset="1" stop-color="#2F3032"/>
</linearGradient>
<linearGradient id="paint8_linear_19_85" x1="145.891" y1="114.59" x2="151.455" y2="97.8071" gradientUnits="userSpaceOnUse">
<stop stop-color="#E0C8C8"/>
<stop offset="1" stop-color="#CD2626" stop-opacity="0"/>
</linearGradient>
<linearGradient id="paint9_linear_19_85" x1="94.5723" y1="117.947" x2="100.937" y2="104.064" gradientUnits="userSpaceOnUse">
<stop stop-color="#040404"/>
<stop offset="1" stop-color="#3C3C3C" stop-opacity="0"/>
</linearGradient>
<linearGradient id="paint10_linear_19_85" x1="187.217" y1="116.237" x2="183.287" y2="108.771" gradientUnits="userSpaceOnUse">
<stop stop-color="#4B4B4B"/>
<stop offset="0.899322" stop-opacity="0"/>
</linearGradient>
</defs>
</svg>
